PathFileType	4	(X/Y/Z)	D:\Share\Shared_Data\Ergonomics\Sit To Stand Pertubation\S1\Unperturbed_NoHarness.trc
DataRate	CameraRate	NumFrames	NumMarkers	Units	OrigDataRate	OrigDataStartFrame	OrigNumFrames	
100	100	14	18	m	100	302	211
Frame#	Time	R_Thigh_Med			R_ASIS			R_Pelvis			V_Sacral			L_Pelvis			L_ASIS			Clavical			R_Acromium			L_Acromium			Sternum			Torso			R_Thigh_Lat			R_Thigh			R_Shank_Med			R_Shank_Lat			R_Shank			R_Heel			R_Toe			
		X1	Y1	Z1	X2	Y2	Z2	X3	Y3	Z3	X4	Y4	Z4	X5	Y5	Z5	X6	Y6	Z6	X7	Y7	Z7	X8	Y8	Z8	X9	Y9	Z9	X10	Y10	Z10	X11	Y11	Z11	X12	Y12	Z12	X13	Y13	Z13	X14	Y14	Z14	X15	Y15	Z15	X16	Y16	Z16	X17	Y17	Z17	X18	Y18	Z18	

302	3.01	0.36890985	0.41590656	0.015108022	0.36568497	0.89086792	0.11056781	0.31993835	0.90019458	0.13155289	0.21949065	0.89465863	-0.016781082	0.32550311	0.90028101	-0.16253004	0.41227994	0.8902923	-0.10563312	0.46558762	1.2277706	-0.017183952	0.40965332	1.3081898	0.13096275	0.36655667	1.2618127	-0.2120134	0.45020932	1.2432531	0.085366753	0.46326776	1.2332836	-0.076702202	0.39437802	0.43465121	0.14296179	0.43445984	0.61426251	0.086230042	0.31918649	0.098873932	0.067918015	0.29505344	0.10239973	0.14869896	0.34233746	0.30928284	0.16087437	0.24458513	0.034146912	0.093427643	0.44933829	0.045016384	0.11800433
303	3.02	0.36622324	0.41646817	0.013982394	0.36600418	0.89334753	0.11160861	0.32253241	0.9014566	0.13164371	0.22242593	0.89607855	-0.017149881	0.32824774	0.90152704	-0.16285942	0.41507407	0.89168042	-0.10586742	0.46516119	1.2301735	-0.017504547	0.4086705	1.3100964	0.13070932	0.36575003	1.2632808	-0.21219429	0.44980447	1.2455037	0.085058342	0.46280875	1.2355905	-0.07707885	0.39271344	0.43512668	0.14336003	0.43499115	0.61406244	0.086319183	0.31898734	0.099086555	0.067993324	0.29487286	0.10245107	0.14873155	0.34111533	0.30954324	0.16117812	0.24458562	0.034161953	0.093426117	0.44933707	0.045023094	0.11800948
304	3.03	0.36331491	0.41700543	0.012610958	0.36692688	0.895289	0.11215274	0.32506201	0.90256628	0.13166321	0.22528139	0.8973548	-0.017513935	0.33092004	0.90265186	-0.16319957	0.41778445	0.89294843	-0.10613513	0.46471991	1.2324127	-0.017824003	0.40769443	1.3118741	0.13045396	0.36492465	1.2646052	-0.21241382	0.44938824	1.2475867	0.084756012	0.46232965	1.237731	-0.07744915	0.39105356	0.43557269	0.14375606	0.43547302	0.61380469	0.086415817	0.31878238	0.099284882	0.068064232	0.29469659	0.10248398	0.14876422	0.33990952	0.30978027	0.16147641	0.24457559	0.0341861	0.093430664	0.44933591	0.045031357	0.11801339
305	3.04	0.36032321	0.41752032	0.01120274	0.36788165	0.8969649	0.11260351	0.32752603	0.90355634	0.13161836	0.22806006	0.89849902	-0.017869572	0.33352017	0.90366797	-0.1635452	0.42041446	0.89412238	-0.10643057	0.46425839	1.2345017	-0.018141867	0.40671857	1.3135298	0.13019447	0.36406354	1.265822	-0.21270679	0.44895096	1.2495156	0.084457741	0.46182965	1.2397178	-0.077815155	0.38940302	0.43599713	0.14415715	0.43591354	0.61350244	0.086523796	0.31857257	0.099474274	0.068133881	0.29452246	0.10250253	0.14880121	0.33871658	0.3099993	0.16177524	0.24455208	0.034220055	0.093438751	0.44933521	0.045038593	0.1180157
306	3.05	0.35742905	0.41801218	0.010016147	0.36910883	0.89837946	0.11284837	0.32992542	0.90445264	0.13152399	0.23076613	0.89952515	-0.018215382	0.33604349	0.90458661	-0.1639017	0.42296466	0.89521942	-0.10675247	0.46377246	1.2364537	-0.018457489	0.40573492	1.3150642	0.12993034	0.36314728	1.266969	-0.21311192	0.44848175	1.2513048	0.084161591	0.46130829	1.2415632	-0.078179108	0.38776862	0.43640802	0.14457202	0.43632074	0.61317072	0.086646187	0.3183609	0.099659637	0.068204994	0.29434799	0.10251245	0.14884502	0.33753519	0.31020584	0.16208026	0.24451312	0.034261795	0.093446342	0.44933521	0.045043282	0.11801695
307	3.06	0.35478632	0.41847708	0.0092676277	0.37168961	0.89923895	0.11222424	0.33226373	0.90527393	0.13139598	0.23340451	0.90044843	-0.018551262	0.33848056	0.90541577	-0.16428468	0.42543222	0.89624902	-0.10710603	0.46326053	1.2382803	-0.01877067	0.40473599	1.3164777	0.1296627	0.36215555	1.2680835	-0.21367059	0.44797452	1.2529694	0.083865913	0.4607645	1.2432802	-0.078542694	0.38615521	0.43681195	0.14500798	0.43670288	0.61282379	0.086786392	0.31815125	0.099845299	0.068279472	0.29417148	0.10251969	0.1488963	0.33636588	0.31040445	0.16239641	0.24445866	0.034305164	0.093446892	0.44933585	0.045045345	0.11801854
308	3.07	0.35247818	0.41890897	0.0090681362	0.37664935	0.89925763	0.11010417	0.33454581	0.90603339	0.13124791	0.23597989	0.90128455	-0.01887711	0.34081866	0.90616077	-0.16471936	0.42781104	0.89721234	-0.10750295	0.46272333	1.2399906	-0.019082291	0.40371677	1.3177719	0.12939273	0.36106967	1.2691991	-0.21442116	0.44742776	1.2545236	0.083569099	0.46019571	1.2448823	-0.078907028	0.38456375	0.43721301	0.14546968	0.43706821	0.61247241	0.086948814	0.31794708	0.1000347	0.068358574	0.29399191	0.10252882	0.14895401	0.33520975	0.31059811	0.16272754	0.24439165	0.034339367	0.093431122	0.44933762	0.045044746	0.11802163
309	3.08	0.35051636	0.41930322	0.0094149895	0.38415488	0.898422	0.10640791	0.33677515	0.90674023	0.131089	0.23849617	0.90204785	-0.019192371	0.343043	0.90682361	-0.16523901	0.43009201	0.89810522	-0.10795985	0.4621626	1.2415914	-0.019394274	0.40267569	1.3189519	0.12912082	0.35987732	1.2703384	-0.21538571	0.44684177	1.2559781	0.083269394	0.45959869	1.246382	-0.07927314	0.38299219	0.43761322	0.14595963	0.4374234	0.61212396	0.087138756	0.31775052	0.10022999	0.068443138	0.29380859	0.10254214	0.14901604	0.3340675	0.31078876	0.1630762	0.24431871	0.034349911	0.093387978	0.44934161	0.04504105	0.11802629
310	3.09	0.34885803	0.41966333	0.010207474	0.39332803	0.89703711	0.10170066	0.33895346	0.90740082	0.13092506	0.24095621	0.90275018	-0.019496878	0.34513882	0.9074046	-0.16588113	0.43226505	0.89892133	-0.10849525	0.46157941	1.2430892	-0.019708845	0.40161356	1.3200244	0.12884677	0.35858215	1.2715007	-0.21654716	0.44621967	1.2573405	0.082965401	0.45897031	1.2477898	-0.079642189	0.38143652	0.4380123	0.14647853	0.43777225	0.61178168	0.087361961	0.31756171	0.10043176	0.068533844	0.29362082	0.10255942	0.14908025	0.33293842	0.31097705	0.16344312	0.24424956	0.034320721	0.093306595	0.4493486	0.045034248	0.11803176
311	3.1	0.34741946	0.42000766	0.011249166	0.40271637	0.89556891	0.096886818	0.34108054	0.90801935	0.13075937	0.2433616	0.90339844	-0.019791119	0.34709427	0.90790387	-0.16667839	0.43432141	0.89965619	-0.10912453	0.46097339	1.2444884	-0.020027941	0.40053201	1.3209963	0.1285701	0.35720984	1.2726569	-0.21783989	0.44556747	1.2586144	0.082656387	0.45830933	1.2491134	-0.080014923	0.37989078	0.43840771	0.14702425	0.43811533	0.61144531	0.087623589	0.31737973	0.10063891	0.068631012	0.29342886	0.10257816	0.14914481	0.33182004	0.3111622	0.16382651	0.24419501	0.034238102	0.093179291	0.449358	0.045025276	0.11803703
312	3.11	0.34609277	0.42036884	0.012271844	0.41109927	0.89439526	0.09271447	0.34315317	0.90859906	0.13059311	0.24571266	0.903995	-0.020075291	0.34890652	0.90832385	-0.16764218	0.43625854	0.90031055	-0.10984985	0.46034286	1.2457939	-0.020353109	0.39943265	1.3218743	0.12828983	0.35579776	1.2737659	-0.21917885	0.44489017	1.259802	0.082341606	0.45761691	1.2503573	-0.080391502	0.37834695	0.43879572	0.14759157	0.43845099	0.61111261	0.087927681	0.31720291	0.10084905	0.068734283	0.29323422	0.10259467	0.14920827	0.33070865	0.31134225	0.16422301	0.24416391	0.034096802	0.093005798	0.44936862	0.045016129	0.11804135
313	3.12	0.34477844	0.42077975	0.01303136	0.41790787	0.89368372	0.089525848	0.3451665	0.90914136	0.13042642	0.24800807	0.90453735	-0.020348022	0.35059268	0.90867102	-0.16873801	0.43808804	0.90089117	-0.11064571	0.45968512	1.2470104	-0.020685474	0.39831757	1.3226631	0.12800424	0.35438577	1.2747864	-0.22048221	0.44419003	1.2609042	0.082019669	0.45689603	1.2515222	-0.080771942	0.3767959	0.43917239	0.14817307	0.43877603	0.61077832	0.088277374	0.31702997	0.10105934	0.068842575	0.29303964	0.10260581	0.14926944	0.32960083	0.31151477	0.16462943	0.2441595	0.033906429	0.092797806	0.44937903	0.045009258	0.11804426
314	3.13	0.34341708	0.42125528	0.01340731	0.42310281	0.89343506	0.087337601	0.347116	0.90964459	0.13025964	0.25024449	0.90502075	-0.020606655	0.35219653	0.90895636	-0.16987164	0.43984042	0.90140918	-0.11145136	0.45899768	1.2481407	-0.021025568	0.39718942	1.3233667	0.12771162	0.35301495	1.275675	-0.22166765	0.44346906	1.2619216	0.081688904	0.45614951	1.2526067	-0.081156319	0.37522797	0.43953293	0.14875888	0.43908597	0.61043549	0.088674599	0.3168598	0.10126751	0.068954338	0.29284778	0.10260995	0.14932805	0.32849435	0.31167752	0.16504424	0.2441772	0.033693512	0.09257991	0.44938834	0.045006157	0.11804558
315	3.14	0.34199759	0.42178354	0.013435983	0.42692551	0.89356372	0.085996002	0.34899786	0.91010571	0.13009207	0.25241693	0.90543939	-0.020849483	0.35377481	0.90919269	-0.17091982	0.44155545	0.90187708	-0.11218999	0.45828015	1.2491843	-0.021373014	0.39605194	1.3239873	0.12741131	0.35171622	1.2763998	-0.22267406	0.44272949	1.2628544	0.081348351	0.45537885	1.2536086	-0.08154438	0.37363449	0.43987054	0.14933568	0.43937476	0.61007733	0.089119034	0.31669214	0.10147218	0.06906794	0.29266013	0.1026067	0.14938513	0.32738779	0.3118288	0.16546732	0.24420688	0.033492214	0.092381042	0.44939633	0.045006332	0.11804551
